<svg xmlns:xlink="http://www.w3.org/1999/xlink" xmlns="http://www.w3.org/2000/svg" width="22" height="22" viewBox="0 0 22 22"><title>22-ym</title><g fill="none" fill-rule="evenodd"><path d="M19.419 9.152H4.583C3.712 9.152 3 9.864 3 10.735v9.574c0 .87.712 1.582 1.583 1.582h14.836V9.152z" fill="#FAC514"/><path d="M3 20.309v-9.574c0-.87.712-1.583 1.583-1.583h12.23v7.642L4.75 20.719 3 20.309z" fill="#D7AB05"/><path d="M14.353 0v13.98L4.359 20.79 3 20.012V10.71c0-1.212.102-1.982 2.612-3.856C7.691 5.303 14.352 0 14.352 0" fill="#FAC514"/><path d="M10.506 8.694c.545-.65 1.34-.878 1.777-.511.436.366.349 1.189-.195 1.838-.545.648-1.34.878-1.776.51-.437-.365-.35-1.189.194-1.837" fill="#020202"/></g></svg>